<svg width="50" height="50" viewBox="0 0 50 50" fill="none" xmlns="http://www.w3.org/2000/svg">
<g id="FILTRAR">
<g id="filter">
<path d="M2.34375 10.9375H9.70813C10.7319 14.5391 14.0434 17.1875 17.9688 17.1875C21.8941 17.1875 25.2058 14.5391 26.2294 10.9375H47.6562C48.9509 10.9375 50 9.88844 50 8.59375C50 7.29906 48.9509 6.25 47.6562 6.25H26.2294C25.2056 2.64844 21.8941 0 17.9688 0C14.0434 0 10.7317 2.64844 9.70813 6.25H2.34375C1.04906 6.25 0 7.29906 0 8.59375C0 9.88844 1.04906 10.9375 2.34375 10.9375ZM17.9688 4.6875C20.1225 4.6875 21.875 6.44 21.875 8.59375C21.875 10.7475 20.1225 12.5 17.9688 12.5C15.815 12.5 14.0625 10.7475 14.0625 8.59375C14.0625 6.44 15.815 4.6875 17.9688 4.6875Z" fill="#7A8987"/>
<path d="M2.34375 26.5625H23.7706C24.7944 30.1641 28.1059 32.8125 32.0312 32.8125C35.9566 32.8125 39.2683 30.1641 40.2919 26.5625H47.6562C48.9509 26.5625 50 25.5134 50 24.2188C50 22.9241 48.9509 21.875 47.6562 21.875H40.2919C39.2681 18.2734 35.9566 15.625 32.0312 15.625C28.1059 15.625 24.7942 18.2734 23.7706 21.875H2.34375C1.04906 21.875 0 22.9241 0 24.2188C0 25.5134 1.04906 26.5625 2.34375 26.5625ZM32.0312 20.3125C34.185 20.3125 35.9375 22.065 35.9375 24.2188C35.9375 26.3725 34.185 28.125 32.0312 28.125C29.8775 28.125 28.125 26.3725 28.125 24.2188C28.125 22.065 29.8775 20.3125 32.0312 20.3125Z" fill="#7A8987"/>
<path d="M2.34375 43.75H9.70813C10.7319 47.3516 14.0434 50 17.9688 50C21.8941 50 25.2058 47.3516 26.2294 43.75H47.6562C48.9509 43.75 50 42.7009 50 41.4062C50 40.1116 48.9509 39.0625 47.6562 39.0625H26.2294C25.2056 35.4609 21.8941 32.8125 17.9688 32.8125C14.0434 32.8125 10.7317 35.4609 9.70813 39.0625H2.34375C1.04906 39.0625 0 40.1116 0 41.4062C0 42.7009 1.04906 43.75 2.34375 43.75ZM17.9688 37.5C20.1225 37.5 21.875 39.2525 21.875 41.4062C21.875 43.56 20.1225 45.3125 17.9688 45.3125C15.815 45.3125 14.0625 43.56 14.0625 41.4062C14.0625 39.2525 15.815 37.5 17.9688 37.5Z" fill="#7A8987"/>
</g>
</g>
</svg>
